<?xml version="1.0" encoding="UTF-8"?>
<svg xmlns="http://www.w3.org/2000/svg" width="1200" height="300">
<polyline fill="none" stroke="red" stroke-width="2" points="
0.0,233.33333333333331 15.584415584415584,208.33333333333331 31.16883116883117,300.0 46.753246753246756,291.6666666666667 62.33766233766234,208.33333333333331 77.92207792207792,291.6666666666667 93.50649350649351,283.3333333333333 109.0909090909091,291.6666666666667 124.67532467532467,241.66666666666666 140.25974025974025,225.0 155.84415584415584,208.33333333333331 171.42857142857142,200.0 187.01298701298703,191.66666666666666 202.5974025974026,183.33333333333331 218.1818181818182,183.33333333333331 233.76623376623377,175.0 249.35064935064935,175.0 264.93506493506493,166.66666666666666 280.5194805194805,133.33333333333331 296.1038961038961,133.33333333333331 311.68831168831167,133.33333333333331 327.27272727272725,133.33333333333331 342.85714285714283,125.0 358.4415584415584,125.0 374.02597402597405,125.0 389.61038961038963,125.0 405.1948051948052,158.33333333333331 420.7792207792208,175.0 436.3636363636364,183.33333333333331 451.94805194805195,175.0 467.53246753246754,208.33333333333331 483.1168831168831,266.6666666666667 498.7012987012987,275.0 514.2857142857143,283.3333333333333 529.8701298701299,275.0 545.4545454545455,283.3333333333333 561.038961038961,258.3333333333333 576.6233766233767,233.33333333333331 592.2077922077922,225.0 607.7922077922078,183.33333333333331 623.3766233766233,125.0 638.961038961039,116.66666666666666 654.5454545454545,100.0 670.1298701298701,100.0 685.7142857142857,100.0 701.2987012987013,141.66666666666666 716.8831168831168,141.66666666666666 732.4675324675325,150.0 748.0519480519481,141.66666666666666 763.6363636363636,141.66666666666666 779.2207792207793,141.66666666666666 794.8051948051948,141.66666666666666 810.3896103896104,133.33333333333331 825.974025974026,141.66666666666666 841.5584415584416,125.0 857.1428571428571,108.33333333333331 872.7272727272727,91.66666666666666 888.3116883116883,108.33333333333331 903.8961038961039,83.33333333333331 919.4805194805194,83.33333333333331 935.0649350649351,66.66666666666666 950.6493506493506,66.66666666666666 966.2337662337662,58.333333333333314 981.8181818181818,58.333333333333314 997.4025974025974,58.333333333333314 1012.987012987013,49.99999999999997 1028.5714285714287,74.99999999999997 1044.155844155844,83.33333333333331 1059.7402597402597,141.66666666666666 1075.3246753246754,141.66666666666666 1090.909090909091,141.66666666666666 1106.4935064935064,141.66666666666666 1122.077922077922,183.33333333333331 1137.6623376623377,183.33333333333331 1153.2467532467533,191.66666666666666 1168.8311688311687,200.0 1184.4155844155844,208.33333333333331 1200.0,208.33333333333331" />
</svg>